<?xml version="1.0" encoding="utf-8"?>
<svg viewBox="308.49 305.694 95.515 75.011" xmlns="http://www.w3.org/2000/svg">
  <path stroke-width="0" d="M 397.682 329.953 L 397.682 338.126 C 397.682 340.947 395.395 343.235 392.573 343.235 L 381.319 343.235 L 367.599 355.24 L 373.592 360.482 C 374.723 359.898 375.975 359.59 377.248 359.582 C 381.762 359.582 385.422 363.241 385.422 367.756 C 385.422 372.27 381.762 375.929 377.248 375.929 C 372.734 375.929 369.074 372.27 369.074 367.756 C 369.084 366.849 369.247 365.95 369.555 365.098 L 362.944 359.314 L 356.334 365.098 C 356.642 365.95 356.804 366.849 356.814 367.756 C 356.814 372.27 353.155 375.929 348.641 375.929 C 344.126 375.929 340.467 372.27 340.467 367.756 C 340.467 363.241 344.126 359.582 348.641 359.582 C 349.913 359.59 351.166 359.898 352.297 360.482 L 358.288 355.24 L 344.568 343.235 L 338.632 343.235 C 335.421 343.234 332.364 341.862 330.23 339.463 L 317.259 324.501 C 315.428 322.595 315.467 319.225 317.663 317.266 L 323.773 311.837 C 325.823 310.002 328.961 310.129 330.857 312.124 L 341.872 324.844 L 392.573 324.844 C 395.395 324.844 397.682 327.131 397.682 329.953 Z M 350.684 367.756 C 350.684 366.627 349.769 365.712 348.641 365.712 C 347.512 365.712 346.597 366.627 346.597 367.756 C 346.597 368.884 347.512 369.799 348.641 369.799 C 349.769 369.799 350.684 368.884 350.684 367.756 Z M 375.205 367.756 C 375.205 368.884 376.12 369.799 377.248 369.799 C 378.377 369.799 379.292 368.884 379.292 367.756 C 379.292 366.627 378.377 365.712 377.248 365.712 C 376.12 365.712 375.205 366.627 375.205 367.756 Z M 372.012 343.235 L 353.877 343.235 L 362.944 351.166 L 372.012 343.235 Z M 391.552 330.974 L 339.062 330.974 L 327.069 317.109 L 322.488 321.18 L 334.836 335.419 C 335.805 336.493 337.185 337.106 338.632 337.104 L 391.552 337.104 L 391.552 330.974 Z" style="stroke-width: 2px; stroke: rgb(0, 0, 0);"/>
</svg>